<svg xmlns="http://www.w3.org/2000/svg" xmlns:xlink="http://www.w3.org/1999/xlink" width="793" zoomAndPan="magnify" viewBox="0 0 595.5 842.249979" height="1122" preserveAspectRatio="xMidYMid meet" version="1.0"><defs><clipPath id="d4879c90fe"><path d="M 0.015625 0 L 594.984375 0 L 594.984375 841.5 L 0.015625 841.5 Z M 0.015625 0 " clip-rule="nonzero"/></clipPath><clipPath id="e32580a12d"><path d="M 42 149 L 48 149 L 48 305.132812 L 42 305.132812 Z M 42 149 " clip-rule="nonzero"/></clipPath><clipPath id="6a91e0847d"><path d="M 547 149 L 553 149 L 553 305.132812 L 547 305.132812 Z M 547 149 " clip-rule="nonzero"/></clipPath><clipPath id="ac95b5fc12"><path d="M 54 31.625 L 59 31.625 L 59 48 L 54 48 Z M 54 31.625 " clip-rule="nonzero"/></clipPath><clipPath id="5e6624fe50"><path d="M 552 58 L 564.777344 58 L 564.777344 64 L 552 64 Z M 552 58 " clip-rule="nonzero"/></clipPath><clipPath id="872eea48ae"><path d="M 535 31.625 L 541 31.625 L 541 48 L 535 48 Z M 535 31.625 " clip-rule="nonzero"/></clipPath><clipPath id="c81242b89e"><path d="M 547 536.007812 L 553 536.007812 L 553 692 L 547 692 Z M 547 536.007812 " clip-rule="nonzero"/></clipPath><clipPath id="ccbaab0eff"><path d="M 42 536.007812 L 48 536.007812 L 48 692 L 42 692 Z M 42 536.007812 " clip-rule="nonzero"/></clipPath><clipPath id="7f8a9496ce"><path d="M 536 793 L 541 793 L 541 809.511719 L 536 809.511719 Z M 536 793 " clip-rule="nonzero"/></clipPath><clipPath id="d1deab4f34"><path d="M 54 793 L 59 793 L 59 809.511719 L 54 809.511719 Z M 54 793 " clip-rule="nonzero"/></clipPath></defs><g clip-path="url(#d4879c90fe)"><path fill="#ffffff" d="M 0.015625 0 L 594.984375 0 L 594.984375 841.5 L 0.015625 841.5 Z M 0.015625 0 " fill-opacity="1" fill-rule="nonzero"/><path fill="#ffffff" d="M 0.015625 0 L 594.984375 0 L 594.984375 841.5 L 0.015625 841.5 Z M 0.015625 0 " fill-opacity="1" fill-rule="nonzero"/></g><path fill="#3c3b3c" d="M 148.207031 51.664062 L 446.324219 51.664062 L 446.324219 47.207031 L 148.207031 47.207031 Z M 148.207031 51.664062 " fill-opacity="1" fill-rule="nonzero"/><g clip-path="url(#e32580a12d)"><path fill="#3c3b3c" d="M 42.746094 454.328125 L 47.199219 454.328125 L 47.199219 149.941406 L 42.746094 149.941406 Z M 42.746094 454.328125 " fill-opacity="1" fill-rule="nonzero"/></g><g clip-path="url(#6a91e0847d)"><path fill="#3c3b3c" d="M 547.589844 454.328125 L 552.042969 454.328125 L 552.042969 149.941406 L 547.589844 149.941406 Z M 547.589844 454.328125 " fill-opacity="1" fill-rule="nonzero"/></g><path fill="#3c3b3c" d="M 47.199219 51.664062 L 54.183594 51.664062 L 54.183594 47.207031 L 42.746094 47.207031 L 42.746094 58.691406 L 47.199219 58.691406 L 47.199219 51.664062 " fill-opacity="1" fill-rule="nonzero"/><path fill="#3c3b3c" d="M 65.621094 51.664062 L 65.621094 49.433594 L 70.074219 49.433594 L 70.074219 51.664062 L 148.207031 51.664062 L 148.207031 47.207031 L 58.636719 47.207031 L 58.636719 51.664062 L 65.621094 51.664062 " fill-opacity="1" fill-rule="nonzero"/><path fill="#3c3b3c" d="M 47.199219 75.921875 L 44.972656 75.921875 L 44.972656 71.464844 L 47.199219 71.464844 L 47.199219 63.148438 L 42.746094 63.148438 L 42.746094 149.941406 L 47.199219 149.941406 L 47.199219 75.921875 " fill-opacity="1" fill-rule="nonzero"/><path fill="#3c3b3c" d="M 70.074219 63.148438 L 148.207031 63.148438 L 148.207031 58.691406 L 70.074219 58.691406 Z M 70.074219 63.148438 " fill-opacity="1" fill-rule="nonzero"/><path fill="#3c3b3c" d="M 58.636719 63.148438 L 65.621094 63.148438 L 65.621094 58.691406 L 58.636719 58.691406 Z M 58.636719 63.148438 " fill-opacity="1" fill-rule="nonzero"/><path fill="#3c3b3c" d="M 47.199219 63.148438 L 54.183594 63.148438 L 54.183594 58.691406 L 47.199219 58.691406 Z M 47.199219 63.148438 " fill-opacity="1" fill-rule="nonzero"/><path fill="#3c3b3c" d="M 30.019531 63.148438 L 42.746094 63.148438 L 42.746094 58.691406 L 30.019531 58.691406 Z M 30.019531 63.148438 " fill-opacity="1" fill-rule="nonzero"/><path fill="#3c3b3c" d="M 42.746094 63.148438 L 47.199219 63.148438 L 47.199219 58.691406 L 42.746094 58.691406 Z M 42.746094 63.148438 " fill-opacity="1" fill-rule="nonzero"/><path fill="#3c3b3c" d="M 54.183594 71.464844 L 58.636719 71.464844 L 58.636719 63.148438 L 54.183594 63.148438 Z M 54.183594 71.464844 " fill-opacity="1" fill-rule="nonzero"/><path fill="#3c3b3c" d="M 54.183594 149.941406 L 58.636719 149.941406 L 58.636719 75.921875 L 54.183594 75.921875 Z M 54.183594 149.941406 " fill-opacity="1" fill-rule="nonzero"/><g clip-path="url(#ac95b5fc12)"><path fill="#3c3b3c" d="M 54.183594 47.207031 L 58.636719 47.207031 L 58.636719 31.628906 L 54.183594 31.628906 Z M 54.183594 47.207031 " fill-opacity="1" fill-rule="nonzero"/></g><path fill="#3c3b3c" d="M 54.183594 58.691406 L 58.636719 58.691406 L 58.636719 51.664062 L 54.183594 51.664062 Z M 54.183594 58.691406 " fill-opacity="1" fill-rule="nonzero"/><path fill="#3c3b3c" d="M 54.183594 51.664062 L 58.636719 51.664062 L 58.636719 47.207031 L 54.183594 47.207031 Z M 54.183594 51.664062 " fill-opacity="1" fill-rule="nonzero"/><path fill="#3c3b3c" d="M 54.183594 63.148438 L 58.636719 63.148438 L 58.636719 58.691406 L 54.183594 58.691406 Z M 54.183594 63.148438 " fill-opacity="1" fill-rule="nonzero"/><path fill="#3c3b3c" d="M 70.074219 75.921875 L 128.695312 75.921875 L 128.695312 71.464844 L 70.074219 71.464844 Z M 70.074219 75.921875 " fill-opacity="1" fill-rule="nonzero"/><path fill="#3c3b3c" d="M 47.199219 75.921875 L 54.183594 75.921875 L 54.183594 71.464844 L 47.199219 71.464844 Z M 47.199219 75.921875 " fill-opacity="1" fill-rule="nonzero"/><path fill="#3c3b3c" d="M 58.636719 75.921875 L 65.621094 75.921875 L 65.621094 71.464844 L 58.636719 71.464844 Z M 58.636719 75.921875 " fill-opacity="1" fill-rule="nonzero"/><path fill="#3c3b3c" d="M 44.972656 75.921875 L 47.199219 75.921875 L 47.199219 71.464844 L 44.972656 71.464844 Z M 44.972656 75.921875 " fill-opacity="1" fill-rule="nonzero"/><path fill="#3c3b3c" d="M 54.183594 75.921875 L 58.636719 75.921875 L 58.636719 71.464844 L 54.183594 71.464844 Z M 54.183594 75.921875 " fill-opacity="1" fill-rule="nonzero"/><path fill="#3c3b3c" d="M 65.621094 126.390625 L 70.074219 126.390625 L 70.074219 75.921875 L 65.621094 75.921875 Z M 65.621094 126.390625 " fill-opacity="1" fill-rule="nonzero"/><path fill="#3c3b3c" d="M 65.621094 71.464844 L 70.074219 71.464844 L 70.074219 63.148438 L 65.621094 63.148438 Z M 65.621094 71.464844 " fill-opacity="1" fill-rule="nonzero"/><path fill="#3c3b3c" d="M 65.621094 58.691406 L 70.074219 58.691406 L 70.074219 51.664062 L 65.621094 51.664062 Z M 65.621094 58.691406 " fill-opacity="1" fill-rule="nonzero"/><path fill="#3c3b3c" d="M 65.621094 51.664062 L 70.074219 51.664062 L 70.074219 49.433594 L 65.621094 49.433594 Z M 65.621094 51.664062 " fill-opacity="1" fill-rule="nonzero"/><path fill="#3c3b3c" d="M 65.621094 63.148438 L 70.074219 63.148438 L 70.074219 58.691406 L 65.621094 58.691406 Z M 65.621094 63.148438 " fill-opacity="1" fill-rule="nonzero"/><path fill="#3c3b3c" d="M 65.621094 75.921875 L 70.074219 75.921875 L 70.074219 71.464844 L 65.621094 71.464844 Z M 65.621094 75.921875 " fill-opacity="1" fill-rule="nonzero"/><path fill="#3c3b3c" d="M 524.453125 51.664062 L 524.453125 49.433594 L 528.902344 49.433594 L 528.902344 51.664062 L 535.882812 51.664062 L 535.882812 47.207031 L 446.324219 47.207031 L 446.324219 51.664062 L 524.453125 51.664062 " fill-opacity="1" fill-rule="nonzero"/><path fill="#3c3b3c" d="M 547.589844 51.664062 L 547.589844 58.691406 L 552.042969 58.691406 L 552.042969 47.207031 L 540.335938 47.207031 L 540.335938 51.664062 L 547.589844 51.664062 " fill-opacity="1" fill-rule="nonzero"/><path fill="#3c3b3c" d="M 547.589844 71.464844 L 549.550781 71.464844 L 549.550781 75.921875 L 547.589844 75.921875 L 547.589844 149.941406 L 552.042969 149.941406 L 552.042969 63.148438 L 547.589844 63.148438 L 547.589844 71.464844 " fill-opacity="1" fill-rule="nonzero"/><path fill="#3c3b3c" d="M 528.902344 63.148438 L 535.882812 63.148438 L 535.882812 58.691406 L 528.902344 58.691406 Z M 528.902344 63.148438 " fill-opacity="1" fill-rule="nonzero"/><path fill="#3c3b3c" d="M 446.324219 63.148438 L 524.453125 63.148438 L 524.453125 58.691406 L 446.324219 58.691406 Z M 446.324219 63.148438 " fill-opacity="1" fill-rule="nonzero"/><g clip-path="url(#5e6624fe50)"><path fill="#3c3b3c" d="M 552.042969 63.148438 L 564.507812 63.148438 L 564.507812 58.691406 L 552.042969 58.691406 Z M 552.042969 63.148438 " fill-opacity="1" fill-rule="nonzero"/></g><path fill="#3c3b3c" d="M 540.335938 63.148438 L 547.589844 63.148438 L 547.589844 58.691406 L 540.335938 58.691406 Z M 540.335938 63.148438 " fill-opacity="1" fill-rule="nonzero"/><path fill="#3c3b3c" d="M 547.589844 63.148438 L 552.042969 63.148438 L 552.042969 58.691406 L 547.589844 58.691406 Z M 547.589844 63.148438 " fill-opacity="1" fill-rule="nonzero"/><path fill="#3c3b3c" d="M 535.882812 58.691406 L 540.335938 58.691406 L 540.335938 51.664062 L 535.882812 51.664062 Z M 535.882812 58.691406 " fill-opacity="1" fill-rule="nonzero"/><path fill="#3c3b3c" d="M 535.882812 149.941406 L 540.335938 149.941406 L 540.335938 75.921875 L 535.882812 75.921875 Z M 535.882812 149.941406 " fill-opacity="1" fill-rule="nonzero"/><path fill="#3c3b3c" d="M 535.882812 71.464844 L 540.335938 71.464844 L 540.335938 63.148438 L 535.882812 63.148438 Z M 535.882812 71.464844 " fill-opacity="1" fill-rule="nonzero"/><g clip-path="url(#872eea48ae)"><path fill="#3c3b3c" d="M 535.882812 47.207031 L 540.335938 47.207031 L 540.335938 31.628906 L 535.882812 31.628906 Z M 535.882812 47.207031 " fill-opacity="1" fill-rule="nonzero"/></g><path fill="#3c3b3c" d="M 535.882812 51.664062 L 540.335938 51.664062 L 540.335938 47.207031 L 535.882812 47.207031 Z M 535.882812 51.664062 " fill-opacity="1" fill-rule="nonzero"/><path fill="#3c3b3c" d="M 535.882812 63.148438 L 540.335938 63.148438 L 540.335938 58.691406 L 535.882812 58.691406 Z M 535.882812 63.148438 " fill-opacity="1" fill-rule="nonzero"/><path fill="#3c3b3c" d="M 540.335938 75.921875 L 547.589844 75.921875 L 547.589844 71.464844 L 540.335938 71.464844 Z M 540.335938 75.921875 " fill-opacity="1" fill-rule="nonzero"/><path fill="#3c3b3c" d="M 528.902344 75.921875 L 535.882812 75.921875 L 535.882812 71.464844 L 528.902344 71.464844 Z M 528.902344 75.921875 " fill-opacity="1" fill-rule="nonzero"/><path fill="#3c3b3c" d="M 465.832031 75.921875 L 524.453125 75.921875 L 524.453125 71.464844 L 465.832031 71.464844 Z M 465.832031 75.921875 " fill-opacity="1" fill-rule="nonzero"/><path fill="#3c3b3c" d="M 547.589844 75.921875 L 549.550781 75.921875 L 549.550781 71.464844 L 547.589844 71.464844 Z M 547.589844 75.921875 " fill-opacity="1" fill-rule="nonzero"/><path fill="#3c3b3c" d="M 535.882812 75.921875 L 540.335938 75.921875 L 540.335938 71.464844 L 535.882812 71.464844 Z M 535.882812 75.921875 " fill-opacity="1" fill-rule="nonzero"/><path fill="#3c3b3c" d="M 524.453125 58.691406 L 528.902344 58.691406 L 528.902344 51.664062 L 524.453125 51.664062 Z M 524.453125 58.691406 " fill-opacity="1" fill-rule="nonzero"/><path fill="#3c3b3c" d="M 524.453125 126.390625 L 528.902344 126.390625 L 528.902344 75.921875 L 524.453125 75.921875 Z M 524.453125 126.390625 " fill-opacity="1" fill-rule="nonzero"/><path fill="#3c3b3c" d="M 524.453125 71.464844 L 528.902344 71.464844 L 528.902344 63.148438 L 524.453125 63.148438 Z M 524.453125 71.464844 " fill-opacity="1" fill-rule="nonzero"/><path fill="#3c3b3c" d="M 524.453125 51.664062 L 528.902344 51.664062 L 528.902344 49.433594 L 524.453125 49.433594 Z M 524.453125 51.664062 " fill-opacity="1" fill-rule="nonzero"/><path fill="#3c3b3c" d="M 524.453125 63.148438 L 528.902344 63.148438 L 528.902344 58.691406 L 524.453125 58.691406 Z M 524.453125 63.148438 " fill-opacity="1" fill-rule="nonzero"/><path fill="#3c3b3c" d="M 524.453125 75.921875 L 528.902344 75.921875 L 528.902344 71.464844 L 524.453125 71.464844 Z M 524.453125 75.921875 " fill-opacity="1" fill-rule="nonzero"/><path fill="#3c3b3c" d="M 446.570312 789.476562 L 148.453125 789.476562 L 148.453125 793.933594 L 446.570312 793.933594 Z M 446.570312 789.476562 " fill-opacity="1" fill-rule="nonzero"/><g clip-path="url(#c81242b89e)"><path fill="#3c3b3c" d="M 552.027344 386.8125 L 547.574219 386.8125 L 547.574219 691.195312 L 552.027344 691.195312 Z M 552.027344 386.8125 " fill-opacity="1" fill-rule="nonzero"/></g><g clip-path="url(#ccbaab0eff)"><path fill="#3c3b3c" d="M 47.183594 386.8125 L 42.730469 386.8125 L 42.730469 691.195312 L 47.183594 691.195312 Z M 47.183594 386.8125 " fill-opacity="1" fill-rule="nonzero"/></g><path fill="#3c3b3c" d="M 547.574219 789.476562 L 540.589844 789.476562 L 540.589844 793.933594 L 552.027344 793.933594 L 552.027344 782.445312 L 547.574219 782.445312 L 547.574219 789.476562 " fill-opacity="1" fill-rule="nonzero"/><path fill="#3c3b3c" d="M 529.152344 789.476562 L 529.152344 791.703125 L 524.699219 791.703125 L 524.699219 789.476562 L 446.570312 789.476562 L 446.570312 793.933594 L 536.136719 793.933594 L 536.136719 789.476562 L 529.152344 789.476562 " fill-opacity="1" fill-rule="nonzero"/><path fill="#3c3b3c" d="M 547.574219 765.214844 L 549.800781 765.214844 L 549.800781 769.671875 L 547.574219 769.671875 L 547.574219 777.988281 L 552.027344 777.988281 L 552.027344 691.195312 L 547.574219 691.195312 L 547.574219 765.214844 " fill-opacity="1" fill-rule="nonzero"/><path fill="#3c3b3c" d="M 524.699219 777.988281 L 446.570312 777.988281 L 446.570312 782.445312 L 524.699219 782.445312 Z M 524.699219 777.988281 " fill-opacity="1" fill-rule="nonzero"/><path fill="#3c3b3c" d="M 536.136719 777.988281 L 529.152344 777.988281 L 529.152344 782.445312 L 536.136719 782.445312 Z M 536.136719 777.988281 " fill-opacity="1" fill-rule="nonzero"/><path fill="#3c3b3c" d="M 547.574219 777.988281 L 540.589844 777.988281 L 540.589844 782.445312 L 547.574219 782.445312 Z M 547.574219 777.988281 " fill-opacity="1" fill-rule="nonzero"/><path fill="#3c3b3c" d="M 564.753906 777.988281 L 552.027344 777.988281 L 552.027344 782.445312 L 564.753906 782.445312 Z M 564.753906 777.988281 " fill-opacity="1" fill-rule="nonzero"/><path fill="#3c3b3c" d="M 552.027344 777.988281 L 547.574219 777.988281 L 547.574219 782.445312 L 552.027344 782.445312 Z M 552.027344 777.988281 " fill-opacity="1" fill-rule="nonzero"/><path fill="#3c3b3c" d="M 540.589844 769.671875 L 536.136719 769.671875 L 536.136719 777.988281 L 540.589844 777.988281 Z M 540.589844 769.671875 " fill-opacity="1" fill-rule="nonzero"/><path fill="#3c3b3c" d="M 540.589844 691.195312 L 536.136719 691.195312 L 536.136719 765.214844 L 540.589844 765.214844 Z M 540.589844 691.195312 " fill-opacity="1" fill-rule="nonzero"/><g clip-path="url(#7f8a9496ce)"><path fill="#3c3b3c" d="M 540.589844 793.933594 L 536.136719 793.933594 L 536.136719 809.507812 L 540.589844 809.507812 Z M 540.589844 793.933594 " fill-opacity="1" fill-rule="nonzero"/></g><path fill="#3c3b3c" d="M 540.589844 782.445312 L 536.136719 782.445312 L 536.136719 789.476562 L 540.589844 789.476562 Z M 540.589844 782.445312 " fill-opacity="1" fill-rule="nonzero"/><path fill="#3c3b3c" d="M 540.589844 789.476562 L 536.136719 789.476562 L 536.136719 793.933594 L 540.589844 793.933594 Z M 540.589844 789.476562 " fill-opacity="1" fill-rule="nonzero"/><path fill="#3c3b3c" d="M 540.589844 777.988281 L 536.136719 777.988281 L 536.136719 782.445312 L 540.589844 782.445312 Z M 540.589844 777.988281 " fill-opacity="1" fill-rule="nonzero"/><path fill="#3c3b3c" d="M 524.699219 765.214844 L 466.078125 765.214844 L 466.078125 769.671875 L 524.699219 769.671875 Z M 524.699219 765.214844 " fill-opacity="1" fill-rule="nonzero"/><path fill="#3c3b3c" d="M 547.574219 765.214844 L 540.589844 765.214844 L 540.589844 769.671875 L 547.574219 769.671875 Z M 547.574219 765.214844 " fill-opacity="1" fill-rule="nonzero"/><path fill="#3c3b3c" d="M 536.136719 765.214844 L 529.152344 765.214844 L 529.152344 769.671875 L 536.136719 769.671875 Z M 536.136719 765.214844 " fill-opacity="1" fill-rule="nonzero"/><path fill="#3c3b3c" d="M 549.800781 765.214844 L 547.574219 765.214844 L 547.574219 769.671875 L 549.800781 769.671875 Z M 549.800781 765.214844 " fill-opacity="1" fill-rule="nonzero"/><path fill="#3c3b3c" d="M 540.589844 765.214844 L 536.136719 765.214844 L 536.136719 769.671875 L 540.589844 769.671875 Z M 540.589844 765.214844 " fill-opacity="1" fill-rule="nonzero"/><path fill="#3c3b3c" d="M 529.152344 714.746094 L 524.699219 714.746094 L 524.699219 765.214844 L 529.152344 765.214844 Z M 529.152344 714.746094 " fill-opacity="1" fill-rule="nonzero"/><path fill="#3c3b3c" d="M 529.152344 769.671875 L 524.699219 769.671875 L 524.699219 777.988281 L 529.152344 777.988281 Z M 529.152344 769.671875 " fill-opacity="1" fill-rule="nonzero"/><path fill="#3c3b3c" d="M 529.152344 782.445312 L 524.699219 782.445312 L 524.699219 789.476562 L 529.152344 789.476562 Z M 529.152344 782.445312 " fill-opacity="1" fill-rule="nonzero"/><path fill="#3c3b3c" d="M 529.152344 789.476562 L 524.699219 789.476562 L 524.699219 791.703125 L 529.152344 791.703125 Z M 529.152344 789.476562 " fill-opacity="1" fill-rule="nonzero"/><path fill="#3c3b3c" d="M 529.152344 777.988281 L 524.699219 777.988281 L 524.699219 782.445312 L 529.152344 782.445312 Z M 529.152344 777.988281 " fill-opacity="1" fill-rule="nonzero"/><path fill="#3c3b3c" d="M 529.152344 765.214844 L 524.699219 765.214844 L 524.699219 769.671875 L 529.152344 769.671875 Z M 529.152344 765.214844 " fill-opacity="1" fill-rule="nonzero"/><path fill="#3c3b3c" d="M 70.320312 789.476562 L 70.320312 791.703125 L 65.871094 791.703125 L 65.871094 789.476562 L 58.890625 789.476562 L 58.890625 793.933594 L 148.453125 793.933594 L 148.453125 789.476562 L 70.320312 789.476562 " fill-opacity="1" fill-rule="nonzero"/><path fill="#3c3b3c" d="M 47.183594 789.476562 L 47.183594 782.445312 L 42.730469 782.445312 L 42.730469 793.933594 L 54.441406 793.933594 L 54.441406 789.476562 L 47.183594 789.476562 " fill-opacity="1" fill-rule="nonzero"/><path fill="#3c3b3c" d="M 47.183594 769.671875 L 45.226562 769.671875 L 45.226562 765.214844 L 47.183594 765.214844 L 47.183594 691.195312 L 42.730469 691.195312 L 42.730469 777.988281 L 47.183594 777.988281 L 47.183594 769.671875 " fill-opacity="1" fill-rule="nonzero"/><path fill="#3c3b3c" d="M 65.871094 777.988281 L 58.890625 777.988281 L 58.890625 782.445312 L 65.871094 782.445312 Z M 65.871094 777.988281 " fill-opacity="1" fill-rule="nonzero"/><path fill="#3c3b3c" d="M 148.453125 777.988281 L 70.320312 777.988281 L 70.320312 782.445312 L 148.453125 782.445312 Z M 148.453125 777.988281 " fill-opacity="1" fill-rule="nonzero"/><path fill="#3c3b3c" d="M 42.730469 777.988281 L 30.265625 777.988281 L 30.265625 782.445312 L 42.730469 782.445312 Z M 42.730469 777.988281 " fill-opacity="1" fill-rule="nonzero"/><path fill="#3c3b3c" d="M 54.441406 777.988281 L 47.183594 777.988281 L 47.183594 782.445312 L 54.441406 782.445312 Z M 54.441406 777.988281 " fill-opacity="1" fill-rule="nonzero"/><path fill="#3c3b3c" d="M 47.183594 777.988281 L 42.730469 777.988281 L 42.730469 782.445312 L 47.183594 782.445312 Z M 47.183594 777.988281 " fill-opacity="1" fill-rule="nonzero"/><path fill="#3c3b3c" d="M 58.890625 782.445312 L 54.441406 782.445312 L 54.441406 789.476562 L 58.890625 789.476562 Z M 58.890625 782.445312 " fill-opacity="1" fill-rule="nonzero"/><path fill="#3c3b3c" d="M 58.890625 691.195312 L 54.441406 691.195312 L 54.441406 765.214844 L 58.890625 765.214844 Z M 58.890625 691.195312 " fill-opacity="1" fill-rule="nonzero"/><path fill="#3c3b3c" d="M 58.890625 769.671875 L 54.441406 769.671875 L 54.441406 777.988281 L 58.890625 777.988281 Z M 58.890625 769.671875 " fill-opacity="1" fill-rule="nonzero"/><g clip-path="url(#d1deab4f34)"><path fill="#3c3b3c" d="M 58.890625 793.933594 L 54.441406 793.933594 L 54.441406 809.507812 L 58.890625 809.507812 Z M 58.890625 793.933594 " fill-opacity="1" fill-rule="nonzero"/></g><path fill="#3c3b3c" d="M 58.890625 789.476562 L 54.441406 789.476562 L 54.441406 793.933594 L 58.890625 793.933594 Z M 58.890625 789.476562 " fill-opacity="1" fill-rule="nonzero"/><path fill="#3c3b3c" d="M 58.890625 777.988281 L 54.441406 777.988281 L 54.441406 782.445312 L 58.890625 782.445312 Z M 58.890625 777.988281 " fill-opacity="1" fill-rule="nonzero"/><path fill="#3c3b3c" d="M 54.441406 765.214844 L 47.183594 765.214844 L 47.183594 769.671875 L 54.441406 769.671875 Z M 54.441406 765.214844 " fill-opacity="1" fill-rule="nonzero"/><path fill="#3c3b3c" d="M 65.871094 765.214844 L 58.890625 765.214844 L 58.890625 769.671875 L 65.871094 769.671875 Z M 65.871094 765.214844 " fill-opacity="1" fill-rule="nonzero"/><path fill="#3c3b3c" d="M 128.941406 765.214844 L 70.320312 765.214844 L 70.320312 769.671875 L 128.941406 769.671875 Z M 128.941406 765.214844 " fill-opacity="1" fill-rule="nonzero"/><path fill="#3c3b3c" d="M 47.183594 765.214844 L 45.226562 765.214844 L 45.226562 769.671875 L 47.183594 769.671875 Z M 47.183594 765.214844 " fill-opacity="1" fill-rule="nonzero"/><path fill="#3c3b3c" d="M 58.890625 765.214844 L 54.441406 765.214844 L 54.441406 769.671875 L 58.890625 769.671875 Z M 58.890625 765.214844 " fill-opacity="1" fill-rule="nonzero"/><path fill="#3c3b3c" d="M 70.320312 782.445312 L 65.871094 782.445312 L 65.871094 789.476562 L 70.320312 789.476562 Z M 70.320312 782.445312 " fill-opacity="1" fill-rule="nonzero"/><path fill="#3c3b3c" d="M 70.320312 714.746094 L 65.871094 714.746094 L 65.871094 765.214844 L 70.320312 765.214844 Z M 70.320312 714.746094 " fill-opacity="1" fill-rule="nonzero"/><path fill="#3c3b3c" d="M 70.320312 769.671875 L 65.871094 769.671875 L 65.871094 777.988281 L 70.320312 777.988281 Z M 70.320312 769.671875 " fill-opacity="1" fill-rule="nonzero"/><path fill="#3c3b3c" d="M 70.320312 789.476562 L 65.871094 789.476562 L 65.871094 791.703125 L 70.320312 791.703125 Z M 70.320312 789.476562 " fill-opacity="1" fill-rule="nonzero"/><path fill="#3c3b3c" d="M 70.320312 777.988281 L 65.871094 777.988281 L 65.871094 782.445312 L 70.320312 782.445312 Z M 70.320312 777.988281 " fill-opacity="1" fill-rule="nonzero"/><path fill="#3c3b3c" d="M 70.320312 765.214844 L 65.871094 765.214844 L 65.871094 769.671875 L 70.320312 769.671875 Z M 70.320312 765.214844 " fill-opacity="1" fill-rule="nonzero"/></svg>